<?xml version="1.0" standalone="no"?>
<!DOCTYPE svg PUBLIC "-//W3C//DTD SVG 20010904//EN"
 "http://www.w3.org/TR/2001/REC-SVG-20010904/DTD/svg10.dtd">
<svg version="1.0" xmlns="http://www.w3.org/2000/svg"
 width="72.000000pt" height="46.000000pt" viewBox="0 0 72.000000 46.000000"
 preserveAspectRatio="xMidYMid meet">

<g transform="translate(0.000000,46.000000) scale(0.100000,-0.100000)"
fill="#000000" stroke="none">
<path d="M0 230 l0 -230 360 0 360 0 0 230 0 230 -360 0 -360 0 0 -230z m478
189 c28 -6 52 -15 52 -21 0 -5 7 -7 16 -4 10 4 13 2 8 -6 -5 -8 -2 -9 9 -5 10
4 26 -2 40 -16 13 -12 16 -16 7 -9 -22 16 -49 17 -32 0 7 -7 12 -17 12 -22 0
-6 -7 0 -16 12 -16 23 -51 32 -38 10 6 -10 4 -10 -7 0 -19 18 -24 15 -25 -13
-2 -18 3 -25 17 -25 10 0 19 6 19 13 0 9 3 8 9 -2 6 -9 22 -12 50 -9 24 2 41
-1 41 -7 0 -6 -29 -9 -74 -8 -61 1 -74 -1 -69 -13 3 -9 13 -12 28 -8 13 3 26
1 30 -5 3 -6 12 -9 18 -5 7 3 3 -2 -8 -11 -11 -9 -19 -22 -17 -28 1 -7 -4 -4
-11 5 -8 10 -17 15 -20 11 -4 -3 -9 1 -13 10 -5 15 -8 14 -24 -6 -10 -12 -16
-26 -13 -30 3 -5 12 0 20 10 8 10 11 12 8 5 -5 -9 -1 -12 11 -10 12 2 18 -2
16 -10 -2 -10 6 -12 30 -7 26 5 30 4 18 -5 -12 -9 -7 -10 19 -5 25 6 32 4 26
-5 -6 -10 -1 -11 19 -6 15 4 26 2 26 -4 0 -5 -7 -10 -15 -10 -8 0 -19 -17 -26
-42 l-12 -43 -14 41 c-10 29 -21 43 -36 46 -21 4 -22 2 -19 -59 4 -73 22 -85
23 -15 l1 47 15 -45 c9 -25 20 -47 24 -51 5 -3 -25 -6 -66 -7 -41 -2 -75 -2
-75 0 0 2 7 23 14 48 l15 45 0 -42 c1 -31 5 -43 16 -43 12 0 15 13 15 60 0 50
-3 60 -17 61 -15 0 -15 2 2 9 13 5 14 9 5 9 -19 0 -59 -17 -43 -18 13 -1 12
-3 -8 -56 l-11 -30 -13 35 c-8 23 -19 36 -33 38 -20 3 -22 -1 -22 -56 0 -39 4
-62 13 -65 6 -2 -11 -5 -39 -5 l-52 -2 12 43 11 42 3 -37 c2 -25 8 -38 18 -38
21 0 20 116 -2 124 -21 8 -34 8 -32 -1 3 -15 -14 -83 -22 -83 -4 0 -12 18 -19
41 -9 30 -16 39 -27 35 -9 -3 -18 -6 -20 -6 -2 0 -4 -25 -4 -55 0 -52 -1 -55
-25 -55 -14 0 -55 7 -90 16 l-65 16 0 63 0 62 39 -1 c22 0 37 -4 35 -8 -3 -5
2 -8 11 -8 9 0 13 5 10 10 -3 6 1 13 9 16 22 8 20 25 -1 17 -10 -3 -15 -3 -11
2 4 4 2 15 -5 24 -9 12 -7 11 13 -2 37 -26 47 -20 19 11 -23 26 -22 26 11 -3
19 -16 37 -32 40 -35 25 -24 35 7 18 53 -11 27 -37 38 -39 15 0 -10 -2 -10 -6
0 -2 7 -22 12 -45 12 -34 0 -39 -3 -34 -17 6 -16 5 -17 -7 -2 -7 9 -21 19 -32
22 -18 4 -18 5 3 6 12 0 22 7 23 14 0 10 2 10 6 0 6 -17 83 -17 83 0 -1 32
-41 47 -68 25 -12 -10 -14 -10 -8 0 4 7 2 12 -4 12 -6 0 -9 4 -6 8 2 4 21 7
40 7 31 -1 34 1 23 14 -10 12 -9 14 6 8 9 -3 17 -2 17 3 0 5 12 10 28 13 56 8
219 6 270 -4z m-398 -53 c0 -2 -8 -10 -17 -17 -16 -13 -17 -12 -4 4 13 16 21
21 21 13z m550 -80 c0 -2 -8 -10 -17 -17 -16 -13 -17 -12 -4 4 13 16 21 21 21
13z m-45 -36 c-3 -5 -12 -10 -18 -10 -7 0 -6 4 3 10 19 12 23 12 15 0z m92
-157 c-2 -21 -4 -6 -4 32 0 39 2 55 4 38 2 -18 2 -50 0 -70z m-27 12 c0 -34
-4 -45 -16 -45 -10 0 -14 6 -10 18 3 9 8 29 12 45 9 39 14 33 14 -18z m-380
-37 c7 -22 6 -28 -6 -28 -10 0 -14 12 -13 43 0 23 3 35 6 27 2 -8 8 -27 13
-42z m159 0 c1 -10 -3 -18 -9 -18 -5 0 -10 17 -9 38 0 30 2 33 9 17 5 -11 9
-28 9 -37z"/>
<path d="M238 398 c-9 -6 -5 -7 10 -3 13 4 22 2 22 -4 0 -16 39 -13 57 4 13
14 10 15 -31 14 -25 -1 -51 -6 -58 -11z"/>
<path d="M237 354 c5 -13 2 -15 -17 -9 -14 5 -20 3 -16 -3 3 -6 1 -12 -5 -14
-6 -2 8 -3 30 -3 28 0 42 4 45 15 3 12 4 11 5 -2 1 -18 21 -26 21 -9 0 5 3 16
6 25 5 13 -2 16 -35 16 -33 0 -39 -3 -34 -16z"/>
<path d="M405 330 c-3 -5 3 -10 15 -10 12 0 18 5 15 10 -3 6 -10 10 -15 10 -5
0 -12 -4 -15 -10z"/>
<path d="M460 330 c0 -5 5 -10 11 -10 5 0 7 5 4 10 -3 6 -8 10 -11 10 -2 0 -4
-4 -4 -10z"/>
<path d="M286 295 c-3 -8 -3 -23 0 -32 5 -14 4 -15 -4 -4 -8 11 -12 10 -21 -8
-7 -11 -10 -21 -9 -22 34 -9 48 -7 42 3 -6 10 -5 10 7 1 8 -6 43 -11 80 -10
63 1 68 3 89 34 12 17 19 36 16 41 -7 12 -96 14 -96 2 0 -5 5 -10 10 -10 6 0
10 -5 10 -11 0 -6 -6 -9 -14 -6 -8 3 -17 -1 -20 -9 -9 -24 -26 -16 -32 16 -5
23 -12 30 -29 30 -13 0 -25 -7 -29 -15z m41 -57 c-3 -7 -5 -2 -5 12 0 14 2 19
5 13 2 -7 2 -19 0 -25z m64 -1 c-10 -9 -11 -8 -5 6 3 10 9 15 12 12 3 -3 0
-11 -7 -18z"/>
<path d="M188 203 c7 -3 16 -2 19 1 4 3 -2 6 -13 5 -11 0 -14 -3 -6 -6z"/>
<path d="M435 200 c-13 -5 -14 -9 -5 -9 8 0 24 4 35 9 13 5 14 9 5 9 -8 0 -24
-4 -35 -9z"/>
<path d="M318 193 c7 -3 16 -2 19 1 4 3 -2 6 -13 5 -11 0 -14 -3 -6 -6z"/>
<path d="M278 183 c7 -3 16 -2 19 1 4 3 -2 6 -13 5 -11 0 -14 -3 -6 -6z"/>
<path d="M358 183 c7 -3 16 -2 19 1 4 3 -2 6 -13 5 -11 0 -14 -3 -6 -6z"/>
<path d="M208 173 c7 -3 16 -2 19 1 4 3 -2 6 -13 5 -11 0 -14 -3 -6 -6z"/>
</g>
</svg>
